# xmcd CD database file
#
# Track frame offsets:
#	150
#	21457
#	35100
#	52643
#	72172
#	92268
#	111144
#	125844
#	141706
#	156436
#	173486
#	193345
#	212202
#	231163
#
# Disc length: 4622 seconds
#
# Revision: 0
# Processed by: cddbd v1.5PL3 Copyright (c) Steve Scherf et al.
# Submitted via: Feurio! 1.67 - http://www.feurio.com
#
DISCID=cf120c0e
DTITLE=Lonsberch Roffler - Hausbrand
DYEAR=2004
DGENRE=blues
TTITLE0=Lonsperch Roffler - I hea do wos kumman
TTITLE1=Lonsperch Roffler - Du kriagst as miama meah
TTITLE2=Lonsperch Roffler - Schof af di
TTITLE3=Lonsperch Roffler - Da olde Jaga
TTITLE4=Lonsperch Roffler - Angelina
TTITLE5=Lonsperch Roffler - I brauch kan Doukta
TTITLE6=Lonsperch Roffler - Hey Babe
TTITLE7=Lonsperch Roffler - Schetzga moja
TTITLE8=Lonsperch Roffler - Schleich di
TTITLE9=Lonsperch Roffler - Schlog mi
TTITLE10=Lonsperch Roffler - I tua des wos i mog
TTITLE11=Lonsperch Roffler - Wuuduu Sau
TTITLE12=Lonsperch Roffler - Mei Diandls
TTITLE13=Lonsperch Roffler - Sozialemanzentussi Blues
EXTD=
EXTT0=
EXTT1=
EXTT2=
EXTT3=
EXTT4=
EXTT5=
EXTT6=
EXTT7=
EXTT8=
EXTT9=
EXTT10=
EXTT11=
EXTT12=
EXTT13=
PLAYORDER=
